<?xml version="1.0" encoding="UTF-8"?>
<svg version="1.1" viewBox="0 0 981 882" width="24.5" height="22" xmlns="http://www.w3.org/2000/svg">
<path transform="translate(398)" d="m0 0h211l16 2 16 6 19 10 11 8 11 9 15 15 13 17 13 21 11 23 8 21 3 10v3h114l16 3 15 5 21 10 13 9 13 11 8 8 10 13 11 19 6 15 5 16 3 15 1 328v156l-4 22-7 21-8 16-8 14-9 11-9 10-13 11-16 10-16 7-18 5-12 2h-744l-16-3-18-6-19-10-12-9-12-11-11-13-8-13-8-16-7-19-6-24v-496l5-21 8-20 9-16 9-12 11-12 10-9 14-9 16-8 18-6 21-4 14-1h101l9-26 11-25 11-20 8-12 11-14 12-13 11-9 15-10 15-7 17-5 13-2zm86 62-96 1-15 1-15 5-12 8-11 10-10 13-9 15-10 21-9 25-8 29-6 8-7 6-8 3h-134l-18 3-13 5-12 7-10 9-9 13-6 13-4 15v477l5 19 5 12 6 11 11 12 8 7 15 7 15 3h726l15-3 16-8 11-9 8-10 9-17 5-17 1-5v-473l-4-17-5-12-7-12-11-12-10-7-14-7-11-3-141-1-11-4-7-6-5-9-8-30-7-20-11-23-10-15-8-10-13-13-15-10-10-4-53-1z" fill="#fff"/>
<path transform="translate(476,303)" d="m0 0h28l24 3 25 6 21 8 16 8 17 10 13 10 13 11 14 14 11 14 9 13 8 14 8 16 7 19 6 24 3 24v31l-3 23-5 21-7 20-10 21-12 19-10 13-9 10-6 7-8 7-13 11-15 10-16 9-17 8-21 7-22 5-16 2h-38l-21-3-21-5-22-8-22-11-18-12-14-11-16-15-7-8-13-17-8-13-12-23-7-19-6-24-3-22v-36l4-27 6-21 6-16 9-19 10-16 12-16 11-12 13-13 14-11 15-10 18-10 25-10 22-6 19-3zm0 63-18 3-18 5-20 9-14 9-14 11-13 13-10 13-9 15-8 18-6 21-2 13v33l4 21 5 15 10 21 11 16 11 12 5 5 11 10 15 10 23 11 21 6 12 2 13 1h10l19-2 21-5 19-8 13-7 14-10 12-11 9-9 11-15 9-16 8-20 5-21 1-8v-30l-4-22-6-18-8-16-10-16-13-15-7-7-14-11-13-8-14-7-20-7-15-3-8-1z" fill="#fff"/>
<!-- <path transform="translate(759,263)" d="m0 0h95l8 5 6 9 1 4v14l-5 10-7 6-6 2h-89l-8-3-5-4-5-9-1-5v-9l4-11 7-7z" fill="#060606"/> -->
</svg>
